<?xml version="1.0" encoding="UTF-8"?>
<!-- Generated by Pixelmator Pro 3.4.3 -->
<svg width="86" height="86" viewBox="0 0 86 86" xmlns="http://www.w3.org/2000/svg">
    <path id="path1" fill="#ffffff" stroke="none" opacity="0" d="M 0 0 L 86 0 L 86 86 L 0 86 Z"/>
    <g id="g1">
        <linearGradient id="linearGradient1" x1="79.238723" y1="91.3279" x2="6.761477" y2="18.8514" gradientUnits="userSpaceOnUse">
            <stop offset="1e-05" stop-color="#f5d9a8" stop-opacity="1"/>
            <stop offset="1" stop-color="#cc9933" stop-opacity="1"/>
        </linearGradient>
        <path id="---" fill="url(#linearGradient1)" fill-rule="evenodd" stroke="none" d="M 0.299502 69.699997 C 0.299502 78.536552 7.462946 85.699997 16.299501 85.699997 L 69.699493 85.699997 C 78.536049 85.699997 85.699493 78.536552 85.699493 69.699997 L 85.699493 16.300003 C 85.699493 7.463448 78.536049 0.300003 69.699493 0.300003 L 16.299501 0.300003 C 7.462946 0.300003 0.299502 7.463448 0.299502 16.300003 Z"/>
    </g>
    <path id="path2" fill="#cc0000" stroke="none" d="M 65.24424 25.145325 L 68.00016 25.145325 L 68.00016 78 L 28.432976 78 C 22.625853 78 17.999838 73.964539 17.999838 67.960564 L 17.999838 22.192551 C 17.999838 18.944496 20.657335 16.287003 23.905388 16.287003 L 60.519798 16.287003 L 60.519798 61.661312 L 28.432976 61.661312 C 24.397516 61.661312 21.543167 63.826679 21.543167 67.76371 L 21.543167 67.960564 C 21.543167 71.897598 24.397516 74.456673 28.432976 74.456673 L 65.24424 74.456673 L 65.24424 25.145325 Z M 60.519798 69.338524 L 28.826679 69.338524 C 27.940847 69.338524 27.15344 68.846397 27.15344 67.862137 C 27.15344 67.07473 27.940847 66.582603 28.826679 66.582603 L 60.519798 66.582603 L 60.519798 69.338524 Z"/>
</svg>
